<?xml version="1.0" encoding="utf-8"?>
<!-- Generator: Adobe Illustrator 16.0.0, SVG Export Plug-In . SVG Version: 6.00 Build 0)  -->
<!DOCTYPE svg PUBLIC "-//W3C//DTD SVG 1.1//EN" "http://www.w3.org/Graphics/SVG/1.1/DTD/svg11.dtd">
<svg version="1.1" id="Layer_1" xmlns="http://www.w3.org/2000/svg" xmlns:xlink="http://www.w3.org/1999/xlink" x="0px" y="0px"
	 width="905px" height="905px" viewBox="0 0 905 905" enable-background="new 0 0 905 905" xml:space="preserve">
<g transform="translate(0.000000,905.000000) scale(0.100000,-0.100000)">
	<path fill="#EE6E73" d="M4260,9043.995c-656.001-48.994-1216.001-200.996-1775-482.998
		c-430-217.998-768.999-458.994-1108.999-790.996c-780-760-1241.001-1712.002-1358.003-2805c-16.997-159.004-16.997-721.006,0-880
		c117.002-1094.004,578.003-2045,1358.003-2805C1716.001,948,2055,706.994,2485,488.996C2986.001,235.998,3486,88,4062.001,23
		c213.994-24.004,712.002-24.004,925.996,0C5564.003,88,6064.003,235.998,6565,488.996c457.002,231.006,785.996,470,1155.996,840
		c283.008,282.998,451.006,494.004,660,829.004c304.004,487.002,513.008,1045.996,608.008,1625
		c47.998,290.996,55.996,395.996,55.996,742.002c0,345.996-7.998,450.996-55.996,741.992
		c-157.002,956.006-608.008,1814.004-1315,2503.008c-340,332.001-679.003,572.998-1109.003,790.996
		c-497.998,251.006-1007.002,402.002-1565.996,464.004C4860.996,9040.001,4380,9052.003,4260,9043.995z M3740,6000.001v-829.004
		l92.998,57.998c192.002,121.006,387.998,205,554.004,237.002c97.998,19.004,265,17.998,360.996-2.002
		c166.006-32.998,297.998-108.994,442.998-252.998C5337.998,5063.996,5450,4883,5490,4723.996c19.004-75,20-113.994,20-1255.996
		V2290.002h-455h-454.004L4597.998,3303L4595,4315.001l-22.998,60c-51.006,135.996-154.004,236.992-275,270
		C4249.003,4658,4206,4660.998,4132.998,4658c-86.997-2.998-107.998-7.998-165-36.006
		C3852.001,4565.001,3756,4445.998,3716,4310.998C3702.001,4263,3700,4143.996,3700,3273v-982.998h-405h-405v2270v2270h425h425
		V6000.001z M2000,5840.001v-440h285h285v-400v-400h-310h-310v-608.008c0-671.992,0-670.996,62.998-753.994
		c71.001-92.998,168.003-127.002,397.002-136.006l155-6.992l2.998-403.008l2.002-402.998l-377.002,2.998L1815,2295.002
		L1721.001,2328c-120,42.002-198.999,90-277.002,167.002c-111.997,111.992-196.997,278.994-245,480.996
		c-53.999,230-52.998,169.004-56.001,1797.002l-3.999,1507.002H1570h430V5840.001z M7879.999,5030.998v-370L7417.997,4658
		c-412.998-4.004-468.994-6.006-520-22.002c-107.998-35-153.994-97.998-123.994-170.996c11.992-27.002,22.998-36.006,56.992-45
		c27.002-8.008,198.008-119.004,493.007-322.001c527.998-364.004,545-377.002,622.998-462.002c113.994-125,162.998-245,170-420.996
		c10-238.008-54.004-406.006-224.004-585c-137.998-146.006-312.998-250-517.998-307.002l-100-27.998l-707.001-3.008L5860,2288.996
		v400v400l577.998,4.004c420,2.002,587.002,5.996,614.004,15c45,15,87.998,63.994,87.998,100c0,42.998-39.004,108.994-95,158.994
		c-29.004,26.006-252.002,174.004-495,327.002c-242.998,154.004-465.996,301.006-495,327.998
		c-120.996,111.006-184.004,257.002-192.002,448.008c-18.994,440,287.998,815,747.998,915c50,10,193.008,13.994,667.001,13.994
		l602.002,1.006V5030.998z"/>
</g>
</svg>
